<svg xmlns="http://www.w3.org/2000/svg" viewBox="0 13.949999809265137 168.5 38.39999771118164" data-asc="1.032" width="168.5" height="38.39999771118164"><defs/><g fill="#000000"><g transform="translate(0, 0)"><path d="M50.70 39.80Q51.55 39.80 51.55 42.10Q51.55 43.35 50.50 45.13Q49.45 46.90 47.78 48.38Q46.10 49.85 44.05 50.80Q42 51.75 39.73 51.75Q37.45 51.75 36.18 50.27Q34.90 48.80 34.90 46.98Q34.90 45.15 35.50 42.85Q36.10 40.55 36.80 38.05Q38.70 31.40 38.75 28.70Q38.75 27.55 38.45 26.93Q38.15 26.30 37.30 26.30Q35.80 26.30 34.10 28.10Q32.40 29.90 30.90 32.70Q27.45 39.10 27.25 45.20Q27.35 45.90 27.45 46.60Q27.55 47.30 27.55 48.10Q27.55 49.70 25.98 51.02Q24.40 52.35 22.45 52.35Q21.30 52.35 20.75 51.23Q20.20 50.10 20.20 48.45Q20.20 46.80 20.95 43.95Q21.70 41.10 22.60 37.90Q25 29.45 25.05 25.30Q25.05 23.20 24.53 22Q24 20.80 22.50 20.80Q19.80 20.80 17.15 24.65Q14.50 28.50 12.40 36.60Q11.85 38.70 11.55 40.25L11.50 41.20Q12.45 45.80 12.45 47.20Q12.45 50.10 10.40 51.10Q9.45 51.55 8.58 51.95Q7.70 52.35 6.70 52.35Q4.20 52.35 4.20 47.58Q4.20 42.80 6.85 28.90Q7.80 23.90 7.80 23.30Q7.80 19.25 5.75 19.25Q5.05 19.25 4.48 19.65Q3.90 20.05 3.33 20.50Q2.75 20.95 2.15 21.35Q1.55 21.75 0.78 21.75Q0 21.75 0 20.40Q0 17.65 2.55 15.90Q5 14.10 8.50 14.10Q13 14.10 13.80 18.30Q14 19.55 14.10 20.95Q17.80 14 23.45 14Q29.60 14 30.50 19.90Q30.80 21.60 30.75 23.55L30.75 23.95Q34 19.45 38.45 19.45Q44.75 19.45 44.75 27.05Q44.75 30.35 43.73 34.78Q42.70 39.20 42.23 41.13Q41.75 43.05 41.75 44.10Q41.75 46 43.08 46Q44.40 46 49.40 40.80Q50.30 39.80 50.70 39.80ZM83.40 19.10Q83.40 19.65 81.90 19.65Q81.35 19.65 80.45 19.50Q79.55 19.35 77.10 19.05Q74.65 18.75 71.88 18.75Q69.10 18.75 66.85 20.23Q64.60 21.70 63.08 24Q61.55 26.30 60.73 29.15Q59.90 32 59.90 34.75Q59.90 39.75 62.20 42.55Q64.50 45.35 68.60 45.35Q76 45.35 79.95 40.10Q81.15 38.50 81.90 36.55Q78.25 36.10 76.30 33.83Q74.35 31.55 74.35 28.23Q74.35 24.90 76.20 22.95Q78.05 21 81.18 21Q84.30 21 85.98 23.38Q87.65 25.75 87.65 29.35Q87.65 30.60 87.55 31.70Q88.45 31.30 89.05 30.85Q89.65 30.40 90.25 30.40Q91.25 30.40 91.25 31.25Q91.25 33 90.08 34.28Q88.90 35.55 86.95 36.20Q85.45 43.50 80.58 47.75Q75.70 52 67.95 52Q60.20 52 55.85 47.30Q52.05 43.15 52.05 36.65Q52.05 32.25 53.48 28.15Q54.90 24.05 57.53 20.90Q60.15 17.75 63.90 15.85Q67.65 13.95 72.33 13.95Q77 13.95 80.20 15.60Q83.40 17.25 83.40 19.10M81.80 25.40Q80.75 25.40 80.75 27.10Q80.75 30.10 83.15 31.45Q83.30 30.10 83.30 28.65Q83.30 25.40 81.80 25.40ZM103.40 49.40Q103.40 52.35 97.65 52.35Q96.40 52.35 96.17 51.08Q95.95 49.80 95.95 47.60Q95.95 43.30 98.20 34.85Q100.45 26.40 102.75 21.30Q97.40 21.40 94.75 23.40Q93.95 24 93.45 24.48Q92.95 24.95 92.58 24.95Q92.20 24.95 91.85 24.38Q91.50 23.80 91.50 23Q91.50 20.25 93.95 18.75Q97.45 16.65 103.90 15.95Q106.75 15.65 109.10 15.65L109.20 15.65Q109.55 15.65 110.17 16.05Q110.80 16.45 110.80 17.35Q110.80 18.25 110.47 19.38Q110.15 20.50 109.60 21.05Q109.30 23.45 108.30 26.80Q107.30 30.15 106.20 33.95Q103.40 43.75 103.40 49.40M128.10 39.80Q128.95 39.80 128.95 42.10Q128.95 43.35 127.90 45.13Q126.85 46.90 125.18 48.38Q123.50 49.85 121.45 50.80Q119.40 51.75 117.55 51.75Q115.70 51.75 114.65 51.05Q113.60 50.35 113 49.15Q112.15 47.45 111.60 42.67Q111.05 37.90 110.50 36Q109.20 35.75 108.22 34.98Q107.25 34.20 107.25 33.08Q107.25 31.95 108.28 31.45Q109.30 30.95 110.60 30.95Q111.90 30.95 112.90 31.55Q115.60 28.65 117.80 23.95Q118.80 21.80 119.72 19.52Q120.65 17.25 121.65 14.85Q121.90 14.25 122.72 14.13Q123.55 14 124.90 14Q126.25 14 126.80 14.88Q127.35 15.75 127.35 17.73Q127.35 19.70 126.30 22.25Q125.25 24.80 123.60 27.20Q120.15 32.25 115.65 34.80Q116.45 36.45 116.95 38.42Q117.45 40.40 117.90 42.08Q118.35 43.75 118.92 44.88Q119.50 46 120.35 46Q121.20 46 122.38 45.02Q123.55 44.05 124.70 42.90Q125.85 41.75 126.78 40.77Q127.70 39.80 128.10 39.80ZM159.20 41.45Q159.20 46 160.45 46Q161.20 46 162.30 45.05Q163.40 44.10 164.50 42.98Q165.60 41.85 166.52 40.90Q167.45 39.95 167.80 39.95Q168.50 39.95 168.50 41.65Q168.50 45.15 164.97 48.45Q161.45 51.75 157.45 51.75Q154.95 51.80 154.05 49.60Q153.35 47.85 153.35 44Q150 51.75 143.40 51.75Q138.95 51.75 136.32 49.52Q133.70 47.30 133.70 42.50Q133.70 41.35 134.97 36.42Q136.25 31.50 137 28.32Q137.75 25.15 137.75 23.30Q137.75 19.25 135.70 19.25Q135 19.25 134.42 19.65Q133.85 20.05 133.27 20.50Q132.70 20.95 132.10 21.35Q131.50 21.75 130.72 21.75Q129.95 21.75 129.95 20.40Q129.95 17.65 132.50 15.90Q134.95 14.10 138.35 14.10Q141.75 14.10 143.45 16.90Q144.75 18.95 144.75 21.52Q144.75 24.10 144.20 26.52Q143.65 28.95 143.02 31.50Q142.40 34.05 141.85 36.67Q141.30 39.30 141.30 40.98Q141.30 42.65 141.45 43.20Q142.15 45.40 144.85 45.40Q148.35 45.40 150.95 41Q153.15 37.30 154.05 32L154.35 29.75L154.15 19.30Q154.15 17 156.15 15.50Q158.15 14 160.35 14.05Q161.25 14.05 161.50 15.38Q161.75 16.70 161.75 18.30Q161.75 19.90 161.55 21.38Q161.35 22.85 161.07 24.77Q160.80 26.70 160.45 28.90Q159.15 37.95 159.20 41.45Z"/></g><g transform="translate(0, 65.65)"><path d=""/></g></g></svg>